<?xml version="1.0" encoding="UTF-8" standalone="no"?>
<svg
   xmlns:dc="http://purl.org/dc/elements/1.1/"
   xmlns:cc="http://creativecommons.org/ns#"
   xmlns:rdf="http://www.w3.org/1999/02/22-rdf-syntax-ns#"
   xmlns:svg="http://www.w3.org/2000/svg"
   xmlns="http://www.w3.org/2000/svg"
   viewBox="0 0 6666.6665 4000"
   height="4000"
   width="6666.6665"
   xml:space="preserve"
   id="svg2"
   version="1.1"><metadata
     id="metadata8"><rdf:RDF><cc:Work
         rdf:about=""><dc:format>image/svg+xml</dc:format><dc:type
           rdf:resource="http://purl.org/dc/dcmitype/StillImage" /></cc:Work></rdf:RDF></metadata><defs
     id="defs6"><clipPath
       id="clipPath20"
       clipPathUnits="userSpaceOnUse"><path
         id="path18"
         d="M 0,3000 H 5000 V 0 H 0 Z" /></clipPath></defs><g
     transform="matrix(1.3333333,0,0,-1.3333333,0,4000)"
     id="g10"><path
       id="path12"
       style="fill:#1d2532;fill-opacity:1;fill-rule:nonzero;stroke:none"
       d="M 0,0 H 5000 V 3000 H 0 Z" /><g
       id="g14"><g
         clip-path="url(#clipPath20)"
         id="g16"><g
           transform="translate(2521.3965,1724.1021)"
           id="g22"><path
             id="path24"
             style="fill:#dbbd89;fill-opacity:1;fill-rule:nonzero;stroke:none"
             d="M 0,0 C -39.4,97.11 -110.129,157.77 -205.512,195.398 -136.538,203.661 -72.087,130.29 0,190.79 Z" /></g><g
           transform="translate(2241.0615,1894.4692)"
           id="g26"><path
             id="path28"
             style="fill:#dbbd89;fill-opacity:1;fill-rule:nonzero;stroke:none"
             d="m 0,0 c -14.724,-22.371 -33.022,-43.205 -43.444,-67.427 -23.09,-53.671 -6.544,-119.809 43.614,-158.487 37.356,-28.805 80.49,-50.575 122.457,-72.825 46.948,-24.89 97.127,-43.95 143.013,-70.533 124.558,-72.16 155.606,-203.786 75.514,-323.833 -23.329,-34.966 -56.463,-63.39 -85.102,-94.812 -3.879,3.318 -7.758,6.635 -11.636,9.953 8.227,10.191 16.545,20.311 24.667,30.585 50.087,63.353 42.339,146.83 -22.54,194.851 -35.049,25.943 -75.39,45.065 -114.378,65.267 -43.959,22.779 -90.271,41.175 -133.482,65.209 -153.007,85.101 -173.471,281.13 -42.433,398.61 12.06,10.813 25.906,19.633 38.922,29.379 C -3.219,3.958 -1.609,1.979 0,0" /></g><g
           transform="translate(2316.604,1080.9287)"
           id="g30"><path
             id="path32"
             style="fill:#dbbd89;fill-opacity:1;fill-rule:nonzero;stroke:none"
             d="M 0,0 C -70.042,-10.682 -133.256,62.228 -206.974,7.204 V 192.495 C -164.771,98.605 -95.121,37.019 0,0" /></g><g
           transform="translate(2622.9238,1918.4668)"
           id="g34"><path
             id="path36"
             style="fill:#dbbd89;fill-opacity:1;fill-rule:nonzero;stroke:none"
             d="M 0,0 C 74.271,13.961 139.929,-70.74 217.936,-1.159 V -201.127 C 172.511,-104.456 103.934,-34.062 0,0" /></g><g
           transform="translate(2890.3701,1288.1758)"
           id="g38"><path
             id="path40"
             style="fill:#dbbd89;fill-opacity:1;fill-rule:nonzero;stroke:none"
             d="m 0,0 v -198.879 c -76.557,60.493 -141.646,-19.089 -228.087,-8.205 C -119.603,-163.419 -39.43,-104.948 0,0" /></g></g></g></g></svg>